<mxfile modified="2022-07-06T02:07:50.237Z" host="app.diagrams.net" agent="5.0 (Windows NT 10.0; Win64; x64) AppleWebKit/537.36 (KHTML, like Gecko) Chrome/101.0.0.0 Safari/537.36" etag="gldWbCjfuBlGMtj1nmRQ" version="18.2.0" type="github">
  <diagram id="C2fSY1v2SiZeoUbDoYyL" name="Page-1">
    <mxGraphModel dx="2062" dy="1122" grid="1" gridSize="10" guides="1" tooltips="1" connect="1" arrows="0" fold="1" page="1" pageScale="1" pageWidth="1169" pageHeight="827" math="0" shadow="0">
      <root>
        <mxCell id="0" />
        <mxCell id="1" parent="0" />
        <mxCell id="3ne1QswCM8ZiEu4GHsYG-31" value="weapp life cycle" style="text;html=1;strokeColor=none;fillColor=none;align=center;verticalAlign=middle;whiteSpace=wrap;rounded=0;fontStyle=1;fontSize=20;fontColor=#4D4D4D;" parent="1" vertex="1">
          <mxGeometry x="189.5" y="50" width="790" height="30" as="geometry" />
        </mxCell>
        <mxCell id="3ne1QswCM8ZiEu4GHsYG-32" value="" style="line;strokeWidth=2;html=1;fontSize=20;fontColor=#4D4D4D;" parent="1" vertex="1">
          <mxGeometry x="103.5" y="80" width="960" height="10" as="geometry" />
        </mxCell>
        <mxCell id="_kr-MLjBTNWW73WKzCOI-5" value="APP" style="html=1;shadow=0;dashed=0;shape=mxgraph.bootstrap.rrect;rSize=5;strokeColor=#82b366;strokeWidth=1;fillColor=#d5e8d4;whiteSpace=wrap;align=center;verticalAlign=middle;spacingLeft=0;fontStyle=0;fontSize=16;spacing=5;" vertex="1" parent="1">
          <mxGeometry x="148.5" y="120" width="50" height="40" as="geometry" />
        </mxCell>
        <mxCell id="_kr-MLjBTNWW73WKzCOI-6" value="COMPONENT" style="html=1;shadow=0;dashed=0;shape=mxgraph.bootstrap.rrect;rSize=5;strokeColor=#d6b656;strokeWidth=1;fillColor=#fff2cc;whiteSpace=wrap;align=center;verticalAlign=middle;spacingLeft=0;fontStyle=0;fontSize=16;spacing=5;" vertex="1" parent="1">
          <mxGeometry x="148.5" y="280" width="120" height="40" as="geometry" />
        </mxCell>
        <mxCell id="_kr-MLjBTNWW73WKzCOI-7" value="PAGE" style="html=1;shadow=0;dashed=0;shape=mxgraph.bootstrap.rrect;rSize=5;strokeColor=#6c8ebf;strokeWidth=1;fillColor=#dae8fc;whiteSpace=wrap;align=center;verticalAlign=middle;spacingLeft=0;fontStyle=0;fontSize=16;spacing=5;" vertex="1" parent="1">
          <mxGeometry x="148.5" y="200" width="50" height="40" as="geometry" />
        </mxCell>
        <mxCell id="_kr-MLjBTNWW73WKzCOI-24" style="edgeStyle=orthogonalEdgeStyle;rounded=0;orthogonalLoop=1;jettySize=auto;html=1;" edge="1" parent="1" source="_kr-MLjBTNWW73WKzCOI-9" target="_kr-MLjBTNWW73WKzCOI-10">
          <mxGeometry relative="1" as="geometry" />
        </mxCell>
        <mxCell id="_kr-MLjBTNWW73WKzCOI-9" value="onLaunch" style="html=1;shadow=0;dashed=0;shape=mxgraph.bootstrap.rrect;rSize=5;strokeColor=#82b366;strokeWidth=1;fillColor=#d5e8d4;whiteSpace=wrap;align=center;verticalAlign=middle;spacingLeft=0;fontStyle=0;fontSize=16;spacing=5;" vertex="1" parent="1">
          <mxGeometry x="348.5" y="120" width="80" height="40" as="geometry" />
        </mxCell>
        <mxCell id="_kr-MLjBTNWW73WKzCOI-19" style="edgeStyle=orthogonalEdgeStyle;rounded=0;orthogonalLoop=1;jettySize=auto;html=1;" edge="1" parent="1" source="_kr-MLjBTNWW73WKzCOI-10" target="_kr-MLjBTNWW73WKzCOI-14">
          <mxGeometry relative="1" as="geometry" />
        </mxCell>
        <mxCell id="_kr-MLjBTNWW73WKzCOI-25" style="edgeStyle=orthogonalEdgeStyle;rounded=0;orthogonalLoop=1;jettySize=auto;html=1;" edge="1" parent="1" source="_kr-MLjBTNWW73WKzCOI-10" target="_kr-MLjBTNWW73WKzCOI-11">
          <mxGeometry relative="1" as="geometry" />
        </mxCell>
        <mxCell id="_kr-MLjBTNWW73WKzCOI-10" value="onShow" style="html=1;shadow=0;dashed=0;shape=mxgraph.bootstrap.rrect;rSize=5;strokeColor=#82b366;strokeWidth=1;fillColor=#d5e8d4;whiteSpace=wrap;align=center;verticalAlign=middle;spacingLeft=0;fontStyle=0;fontSize=16;spacing=5;" vertex="1" parent="1">
          <mxGeometry x="548.5" y="120" width="80" height="40" as="geometry" />
        </mxCell>
        <mxCell id="_kr-MLjBTNWW73WKzCOI-27" style="edgeStyle=orthogonalEdgeStyle;rounded=0;orthogonalLoop=1;jettySize=auto;html=1;entryX=1;entryY=0.75;entryDx=0;entryDy=0;entryPerimeter=0;" edge="1" parent="1" source="_kr-MLjBTNWW73WKzCOI-11" target="_kr-MLjBTNWW73WKzCOI-10">
          <mxGeometry relative="1" as="geometry">
            <Array as="points">
              <mxPoint x="758.5" y="150" />
              <mxPoint x="758.5" y="150" />
            </Array>
          </mxGeometry>
        </mxCell>
        <mxCell id="_kr-MLjBTNWW73WKzCOI-11" value="onHide" style="html=1;shadow=0;dashed=0;shape=mxgraph.bootstrap.rrect;rSize=5;strokeColor=#82b366;strokeWidth=1;fillColor=#d5e8d4;whiteSpace=wrap;align=center;verticalAlign=middle;spacingLeft=0;fontStyle=0;fontSize=16;spacing=5;" vertex="1" parent="1">
          <mxGeometry x="738.5" y="120" width="80" height="40" as="geometry" />
        </mxCell>
        <mxCell id="_kr-MLjBTNWW73WKzCOI-20" style="edgeStyle=orthogonalEdgeStyle;rounded=0;orthogonalLoop=1;jettySize=auto;html=1;" edge="1" parent="1" source="_kr-MLjBTNWW73WKzCOI-14" target="_kr-MLjBTNWW73WKzCOI-15">
          <mxGeometry relative="1" as="geometry" />
        </mxCell>
        <mxCell id="_kr-MLjBTNWW73WKzCOI-14" value="onLoad" style="html=1;shadow=0;dashed=0;shape=mxgraph.bootstrap.rrect;rSize=5;strokeColor=#6c8ebf;strokeWidth=1;fillColor=#dae8fc;whiteSpace=wrap;align=center;verticalAlign=middle;spacingLeft=0;fontStyle=0;fontSize=16;spacing=5;" vertex="1" parent="1">
          <mxGeometry x="548.5" y="200" width="80" height="40" as="geometry" />
        </mxCell>
        <mxCell id="_kr-MLjBTNWW73WKzCOI-21" style="edgeStyle=orthogonalEdgeStyle;rounded=0;orthogonalLoop=1;jettySize=auto;html=1;" edge="1" parent="1" source="_kr-MLjBTNWW73WKzCOI-15" target="_kr-MLjBTNWW73WKzCOI-18">
          <mxGeometry relative="1" as="geometry" />
        </mxCell>
        <mxCell id="_kr-MLjBTNWW73WKzCOI-22" style="edgeStyle=orthogonalEdgeStyle;rounded=0;orthogonalLoop=1;jettySize=auto;html=1;" edge="1" parent="1" source="_kr-MLjBTNWW73WKzCOI-15" target="_kr-MLjBTNWW73WKzCOI-16">
          <mxGeometry relative="1" as="geometry" />
        </mxCell>
        <mxCell id="_kr-MLjBTNWW73WKzCOI-15" value="onShow" style="html=1;shadow=0;dashed=0;shape=mxgraph.bootstrap.rrect;rSize=5;strokeColor=#6c8ebf;strokeWidth=1;fillColor=#dae8fc;whiteSpace=wrap;align=center;verticalAlign=middle;spacingLeft=0;fontStyle=0;fontSize=16;spacing=5;" vertex="1" parent="1">
          <mxGeometry x="748.5" y="200" width="80" height="40" as="geometry" />
        </mxCell>
        <mxCell id="_kr-MLjBTNWW73WKzCOI-23" style="edgeStyle=orthogonalEdgeStyle;rounded=0;orthogonalLoop=1;jettySize=auto;html=1;" edge="1" parent="1" source="_kr-MLjBTNWW73WKzCOI-16" target="_kr-MLjBTNWW73WKzCOI-15">
          <mxGeometry relative="1" as="geometry">
            <Array as="points">
              <mxPoint x="768.5" y="310" />
              <mxPoint x="768.5" y="310" />
            </Array>
          </mxGeometry>
        </mxCell>
        <mxCell id="_kr-MLjBTNWW73WKzCOI-16" value="onHide" style="html=1;shadow=0;dashed=0;shape=mxgraph.bootstrap.rrect;rSize=5;strokeColor=#6c8ebf;strokeWidth=1;fillColor=#dae8fc;whiteSpace=wrap;align=center;verticalAlign=middle;spacingLeft=0;fontStyle=0;fontSize=16;spacing=5;" vertex="1" parent="1">
          <mxGeometry x="748.5" y="320" width="80" height="40" as="geometry" />
        </mxCell>
        <mxCell id="_kr-MLjBTNWW73WKzCOI-18" value="onReady" style="html=1;shadow=0;dashed=0;shape=mxgraph.bootstrap.rrect;rSize=5;strokeColor=#6c8ebf;strokeWidth=1;fillColor=#dae8fc;whiteSpace=wrap;align=center;verticalAlign=middle;spacingLeft=0;fontStyle=0;fontSize=16;spacing=5;" vertex="1" parent="1">
          <mxGeometry x="938.5" y="200" width="80" height="40" as="geometry" />
        </mxCell>
      </root>
    </mxGraphModel>
  </diagram>
</mxfile>
